<svg width="300" height="150" viewBox="0 0 300 150" fill="none" xmlns="http://www.w3.org/2000/svg">
<rect width="300" height="150" rx="10" fill="white"/>
<path d="M30 59.7669H41.6616L47.7189 80.3624H47.9453L54.0026 59.7669H65.6642V88.0857H58.0785V66.559H57.9087L51.625 88.0857H44.0392L37.7555 66.559H37.5857V88.0857H30V59.7669Z" fill="black"/>
<path d="M68.9635 59.7669H76.6624V78.9382L87.7013 59.7669H96.8155V88.0857H89.1166V68.9143L78.0777 88.0857H68.9635V59.7669Z" fill="black"/>
<path d="M100.077 59.7669H108.115V70.0646H119.494V59.7669H127.533V88.0857H119.494V76.1994H108.115V88.0857H100.077V59.7669Z" fill="black"/>
<path d="M135.162 98C134.332 98 133.501 97.9635 132.671 97.8904C131.879 97.8539 131.067 97.7992 130.237 97.7261V91.3174C130.879 91.3904 131.539 91.4452 132.218 91.4817C132.935 91.5548 133.634 91.5913 134.313 91.5913C135.521 91.5913 136.445 91.2626 137.087 90.6053C137.728 89.948 138.049 89.1081 138.049 88.0857C138.049 87.4649 137.936 86.8806 137.709 86.3329L127.463 59.7669H136.011L142.635 79.1573H142.748L149.145 59.7669H157.466L145.239 91.5913C144.371 93.8919 143.163 95.5351 141.616 96.5211C140.068 97.507 137.917 98 135.162 98Z" fill="black"/>
<path d="M171.197 88.7978C168.971 88.7978 166.952 88.4508 165.14 87.757C163.329 87.0267 161.781 86.0225 160.498 84.7444C159.215 83.4663 158.215 81.9508 157.498 80.198C156.781 78.4087 156.422 76.4551 156.422 74.3371C156.422 72.1461 156.743 70.1194 157.385 68.257C158.064 66.3581 159.045 64.7331 160.328 63.382C161.611 61.9944 163.178 60.9171 165.027 60.1503C166.876 59.3834 168.99 59 171.367 59C173.103 59 174.764 59.2191 176.349 59.6573C177.972 60.0955 179.406 60.7711 180.651 61.684C181.934 62.5604 182.972 63.6742 183.765 65.0253C184.557 66.3764 185.01 67.9466 185.123 69.736H177.255C176.726 66.486 174.745 64.861 171.311 64.861C170.027 64.861 168.952 65.1531 168.084 65.7374C167.216 66.2851 166.499 67.0154 165.933 67.9284C165.404 68.8048 165.027 69.7907 164.8 70.8862C164.574 71.9817 164.461 73.0407 164.461 74.0632C164.461 75.0857 164.574 76.1264 164.8 77.1854C165.027 78.2444 165.385 79.2121 165.876 80.0885C166.404 80.9284 167.103 81.6222 167.971 82.1699C168.839 82.7177 169.895 82.9916 171.141 82.9916C173.065 82.9916 174.537 82.4803 175.556 81.4579C176.613 80.3989 177.273 78.993 177.538 77.2402H185.293C184.765 81.0014 183.255 83.868 180.764 85.8399C178.274 87.8118 175.085 88.7978 171.197 88.7978Z" fill="black"/>
<path d="M187.004 59.7669H195.042V71.3244L205.798 59.7669H215.252L203.024 72.2556L216.837 88.0857H207.1L196.741 76.309L195.042 78.1166V88.0857H187.004V59.7669Z" fill="black"/>
<path d="M221.039 98C220.208 98 219.378 97.9635 218.548 97.8904C217.755 97.8539 216.944 97.7992 216.114 97.7261V91.3174C216.755 91.3904 217.416 91.4452 218.095 91.4817C218.812 91.5548 219.51 91.5913 220.19 91.5913C221.397 91.5913 222.322 91.2626 222.963 90.6053C223.605 89.948 223.926 89.1081 223.926 88.0857C223.926 87.4649 223.813 86.8806 223.586 86.3329L213.34 59.7669H221.888L228.511 79.1573H228.624L235.021 59.7669H243.343L231.115 91.5913C230.247 93.8919 229.04 95.5351 227.492 96.5211C225.945 97.507 223.794 98 221.039 98Z" fill="black"/>
<path d="M244.45 88.5239C244.11 88.5239 243.582 88.4691 242.865 88.3595C242.148 88.25 241.582 88.1222 241.167 87.9761V82.1152C241.393 82.1882 241.657 82.243 241.959 82.2795C242.261 82.2795 242.563 82.2795 242.865 82.2795C243.544 82.2795 244.148 82.0787 244.676 81.677C245.243 81.2388 245.695 80.4171 246.035 79.2121C246.412 78.007 246.695 76.2907 246.884 74.0632C247.111 71.8357 247.224 68.9143 247.224 65.2992V59.7669H271V88.0857H262.961V65.6278H254.696C254.545 69.6447 254.3 73.0955 253.96 75.9803C253.621 78.8652 253.074 81.2388 252.319 83.1011C251.602 84.9635 250.602 86.3329 249.318 87.2093C248.073 88.0857 246.45 88.5239 244.45 88.5239Z" fill="black"/>
</svg>
