<svg width="1000" height="500" viewBox="0 0 1000 500" fill="none" xmlns="http://www.w3.org/2000/svg">
<rect width="1000" height="500" rx="10" fill="white"/>
<path d="M100 199.223H138.872L159.063 267.875H159.818L180.009 199.223H218.881V293.619H193.595V221.863H193.029L172.083 293.619H146.797L125.852 221.863H125.286V293.619H100V199.223Z" fill="black"/>
<path d="M229.878 199.223H255.541V263.127L292.338 199.223H322.718V293.619H297.055V229.714L260.259 293.619H229.878V199.223Z" fill="black"/>
<path d="M333.589 199.223H360.385V233.549H398.313V199.223H425.108V293.619H398.313V253.998H360.385V293.619H333.589V199.223Z" fill="black"/>
<path d="M450.54 326.667C447.773 326.667 445.005 326.545 442.237 326.302C439.596 326.18 436.891 325.997 434.123 325.754V304.391C436.262 304.635 438.463 304.817 440.728 304.939C443.118 305.183 445.445 305.304 447.71 305.304C451.735 305.304 454.817 304.209 456.956 302.018C459.095 299.827 460.164 297.027 460.164 293.619C460.164 291.55 459.786 289.602 459.032 287.776L424.877 199.223H453.371L475.448 263.858H475.826L497.149 199.223H524.888L484.129 305.304C481.235 312.973 477.21 318.45 472.052 321.737C466.894 325.023 459.724 326.667 450.54 326.667Z" fill="black"/>
<path d="M570.658 295.993C563.235 295.993 556.505 294.836 550.467 292.523C544.428 290.089 539.271 286.742 534.993 282.481C530.716 278.221 527.383 273.169 524.992 267.327C522.602 261.362 521.407 254.85 521.407 247.79C521.407 240.487 522.476 233.731 524.615 227.523C526.879 221.194 530.15 215.777 534.427 211.273C538.705 206.648 543.925 203.057 550.089 200.501C556.254 197.945 563.298 196.667 571.224 196.667C577.011 196.667 582.546 197.397 587.829 198.858C593.239 200.318 598.019 202.57 602.17 205.613C606.448 208.535 609.907 212.247 612.549 216.751C615.191 221.255 616.7 226.489 617.078 232.453H590.848C589.087 221.62 582.483 216.203 571.035 216.203C566.758 216.203 563.173 217.177 560.279 219.125C557.386 220.95 554.996 223.385 553.109 226.428C551.347 229.349 550.089 232.636 549.335 236.287C548.58 239.939 548.202 243.469 548.202 246.877C548.202 250.286 548.58 253.755 549.335 257.285C550.089 260.815 551.284 264.04 552.92 266.962C554.681 269.761 557.008 272.074 559.902 273.9C562.795 275.726 566.318 276.639 570.469 276.639C576.885 276.639 581.791 274.934 585.188 271.526C588.71 267.996 590.911 263.31 591.792 257.467H617.644C615.883 270.005 610.851 279.56 602.548 286.133C594.245 292.706 583.615 295.993 570.658 295.993Z" fill="black"/>
<path d="M623.346 199.223H650.141V237.748L685.994 199.223H717.507L676.748 240.852L722.791 293.619H690.334L655.802 254.363L650.141 260.389V293.619H623.346V199.223Z" fill="black"/>
<path d="M736.796 326.667C734.028 326.667 731.261 326.545 728.493 326.302C725.851 326.18 723.146 325.997 720.379 325.754V304.391C722.517 304.635 724.719 304.817 726.983 304.939C729.374 305.183 731.701 305.304 733.965 305.304C737.991 305.304 741.073 304.209 743.211 302.018C745.35 299.827 746.419 297.027 746.419 293.619C746.419 291.55 746.042 289.602 745.287 287.776L711.133 199.223H739.626L761.704 263.858H762.081L783.404 199.223H811.143L770.384 305.304C767.491 312.973 763.465 318.45 758.307 321.737C753.15 325.023 745.979 326.667 736.796 326.667Z" fill="black"/>
<path d="M814.833 295.08C813.701 295.08 811.94 294.897 809.55 294.532C807.159 294.167 805.272 293.741 803.889 293.254V273.717C804.643 273.961 805.524 274.143 806.53 274.265C807.537 274.265 808.543 274.265 809.55 274.265C811.814 274.265 813.827 273.596 815.588 272.257C817.475 270.796 818.985 268.057 820.117 264.04C821.375 260.023 822.318 254.302 822.947 246.877C823.702 239.452 824.079 229.714 824.079 217.664V199.223H903.333V293.619H876.538V218.759H848.988C848.485 232.149 847.667 243.652 846.535 253.268C845.403 262.884 843.578 270.796 841.062 277.004C838.672 283.212 835.339 287.776 831.061 290.698C826.91 293.619 821.501 295.08 814.833 295.08Z" fill="black"/>
</svg>
