<svg width="250" height="250" viewBox="0 0 250 250" fill="none" xmlns="http://www.w3.org/2000/svg">
<rect width="250" height="250" rx="10" fill="white"/>
<path d="M55 56C55 55.4477 55.4477 55 56 55H94.5012C94.9375 55 95.3234 55.2828 95.4548 55.6989L125.583 151.102C125.615 151.205 125.71 151.275 125.818 151.275C125.927 151.275 126.023 151.203 126.054 151.099L154.553 55.7137C154.679 55.2902 155.069 55 155.511 55H194C194.552 55 195 55.4477 195 56V194C195 194.552 194.552 195 194 195H169.238C168.686 195 168.238 194.552 168.238 194V95.9949C168.238 95.8786 168.144 95.7843 168.027 95.7843C167.936 95.7843 167.855 95.8434 167.827 95.9305L136.237 194.306C136.104 194.719 135.72 195 135.285 195H114.713C114.279 195 113.895 194.721 113.761 194.309L82.1734 96.9105C82.1452 96.8236 82.0642 96.7647 81.9729 96.7647C81.8564 96.7647 81.762 96.8591 81.762 96.9755V194C81.762 194.552 81.3143 195 80.762 195H56C55.4477 195 55 194.552 55 194V56Z" fill="black"/>
</svg>
